<svg viewBox="0 0 2485.15 1917.32" xmlns="http://www.w3.org/2000/svg" xmlns:xlink="http://www.w3.org/1999/xlink" overflow="hidden"><defs><clipPath id="aa9f13f4-ae3a-4659-98ef-a726bc3bc98e" transform="translate(-542.01 -111.32)"><path d="M1664.73 981.08C1675.22 987.69 1674.28 1012.85 1681.37 1027.45 1681.37 1027.45 1693.48 1036.63 1688.56 1043.59 1685.85 1047.43 1681.44 1050.31 1676.35 1049.35 1673.1 1048.74 1667.79 1043.43 1664.63 1039.55 1651.06 1037.47 1637.69 1034.3 1624.63 1030.07 1607.84 1024.39 1599.77 995.86 1605.77 980.85 1610.74 968.48 1648.7 971 1664.73 981.08Z" fill="#E6E7E8"/></clipPath><clipPath id="b0c92b1d-e059-45a5-8621-33dc87fc3e9d" transform="translate(-542.01 -111.32)"><path d="M2886.89 1311.82 2887.2 1280.94C2887.2 1280.94 2884.29 1165.84 2837.37 1168.31 2798.83 1170.31 2782.6 1218.01 2770.68 1270.74 2760.68 1315.1 2753.98 1381.88 2729.61 1385.6 2677.18 1393.6 2613.87 1404.52 2559.48 1412.73 2505.73 1420.84 2418.48 1444.17 2418.48 1444.17 2426.48 1352.57 2410.36 1167.3 2331.25 1171.35 2258.12 1175.1 2232.12 1311.82 2218.68 1466.7 2202.38 1475.9 2055.49 1483.7 1988.46 1483.7 1916.96 1483.7 1576.52 1472.61 1534.1 1467.48 1491.68 1462.35 1461.38 1460.07 1440.1 1413.73 1405.1 1337.66 1408.1 1267.49 1414.46 1240.3 1426.13 1190.6 1438.8 1101.86 1621.36 1033.4 1627.49 1031.1 1659.25 1032.9 1665.98 1031.4 1802.9 906.66 1952.98 809.8 2076.23 793.07 2196.3 776.76 2390.88 768.65 2535.15 762.64 2632.51 758.64 2728.64 811.32 2810.79 908.64 2839.69 931.46 2860.7 946.64 2860.7 946.64 2860.7 946.64 2898.48 1107.14 2905.33 1119.31 2914 1134.84 2904.3 1294.07 2886.89 1311.82Z" fill="#E6E7E8"/></clipPath><clipPath id="a08edc1e-353b-434f-86a7-c7579381b1df" transform="translate(-542.01 -111.32)"><path d="M1641.13 1033.42C1789.2 1035.96 2145.13 1026.32 2256.23 1014.15 2326.23 902.59 2403.29 779.37 2535.14 762.63 2342.44 765.63 2176.33 774.63 2074.69 785.45 1974.29 796.1 1782.61 902.59 1641.13 1033.42Z" fill="#162C30"/></clipPath><clipPath id="ab226b03-6a13-45bf-b6ba-141f6d5e8352" transform="translate(-542.01 -111.32)"><path d="M2316.36 1024.3C2522.24 1006 2758.91 954 2789.7 945.19 2802.12 941.64 2802.7 934.54 2807.7 913.19 2731.67 822 2615.26 783.93 2558.46 790 2400.25 807 2316.36 1024.3 2316.36 1024.3Z" fill="#162C30"/></clipPath><clipPath id="f8c952ef-6da3-4da9-b32b-6f0623c4a9c6" transform="translate(-542.01 -111.32)"><path d="M2399.33 967.76C2383.26 974.91 2364.76 1003.25 2353.9 1019.03 2353.9 1019.03 2335.37 1028.96 2342.9 1036.49 2347.83 1041.35 2354.73 1043.65 2361.59 1042.72 2366.59 1042.05 2374.7 1036.31 2379.54 1032.11 2400.12 1029.9 2420.55 1026.48 2440.73 1021.86 2466.45 1015.73 2478.03 987.05 2477.86 969.15 2477.74 956.34 2423.87 956.85 2399.33 967.76Z" fill="#E6E7E8"/></clipPath><clipPath id="b305f92e-2e63-4fa3-a0fd-dfbfdd9c793a" transform="translate(-542.01 -111.32)"><path d="M2268.81 1241.94C2268.81 1241.94 2237.68 1305.09 2230.81 1361.18 2223.94 1417.27 2225.69 1475.59 2225.69 1475.59L2218.69 1493.59 2205.69 1506.76 2263.32 1599.6 2430.87 1584.45 2477.87 1302.01 2370.74 1213.11 2287.31 1208.94Z" fill="none"/></clipPath><clipPath id="b67ad4d6-e0bc-4a5d-933a-f5c48e2020bc" transform="translate(-542.01 -111.32)"><path d="M1572.44 1184.13C1572.44 1184.13 1600.15 1186.46 1628.57 1186.44 1656.99 1186.42 1689.73 1186.44 1689.73 1186.44 1689.73 1186.44 1700.98 1145.83 1709.98 1130.33 1709.98 1130.33 1663.98 1131.41 1635.31 1131 1606.64 1130.59 1586.98 1128.83 1586.98 1128.83 1573.31 1155.5 1572.44 1184.13 1572.44 1184.13Z" fill="#162C30"/></clipPath></defs><g id="f3a3856f-8439-49f4-aab7-d04c0561210f"><path d="M2071.09 113C1568.58 144.53 461.47 984 546.66 1356.64 631.85 1729.28 1408.11 1974.89 1927.38 2020.55 2446.65 2066.21 2961.49 1927.31 3020.55 1380 3079.61 832.69 2742 70.89 2071.09 113Z" fill="#00BED8" transform="translate(-542.01 -111.32)"/></g><g id="a108f649-fd18-47cb-b986-fc09d644251b"><path d="M3008 1441.37C3011.94 1441.86 3016.86 1445.21 2991.32 1452.07 2854.06 1488.94 2484.75 1575.24 2344.08 1606.76 2172.89 1645.12 2050.28 1648.76 1908.9 1648.76 1767.52 1648.76 1343.84 1610.68 1279.62 1599.76 1215.4 1588.84 1343.93 1549.3 1511.62 1523.21 1689 1495.62 2424 1397.9 2424 1397.9 2424 1397.9 2985.94 1438.65 3008 1441.37Z" fill="#0E2529" opacity="0.1" transform="translate(-542.01 -111.32)"/><path d="M2947.86 1438C2951.16 1438.41 2955.29 1441.22 2933.86 1447 2818.66 1477.94 2508.73 1550.37 2390.68 1576.82 2247 1609 2144.11 1612 2025.45 1612 1906.79 1612 1527.16 1585.2 1473.26 1576.07 1419.36 1566.94 1550.26 1520 1692.01 1506.67 1833.76 1493.34 2457.7 1401.49 2457.7 1401.49 2457.7 1401.49 2929.32 1435.69 2947.86 1438Z" fill="#0E2529" opacity="0.7" transform="translate(-542.01 -111.32)"/><ellipse cx="1039.91" cy="1266.62" rx="116.15" ry="158.7" fill="#162C30"/><path d="M1038.67 1107.93 1108.4 1107.93 1100.43 1430.35 1038.67 1425.32 1038.67 1107.93Z" fill="#162C30"/><ellipse cx="1102.24" cy="1269.62" rx="111.81" ry="160.65" fill="#162C30"/><ellipse cx="1109.44" cy="1269.62" rx="82.41" ry="123" fill="#F0F2F8"/><ellipse cx="1111.21" cy="1269.62" rx="72.54" ry="110.74" fill="#162C30"/><path d="M1121.22 1150.49 1112.82 1250.69 1181.12 1214.4 1186.84 1235.62 1115.66 1273.76 1171.92 1341.87 1162.34 1360.48 1103.6 1290.44 1072.08 1376.34 1058.36 1360.87 1088.51 1273.53 1029.99 1248.77 1034.32 1223.7 1091.53 1249.04 1099.68 1149.2 1121.22 1150.49Z" fill="#F0F2F8"/><path d="M1620.73 1380.94C1620.73 1400.59 1631.41 1416.53 1644.58 1416.53 1657.75 1416.53 1668.42 1400.59 1668.42 1380.94 1668.42 1361.29 1657.74 1345.35 1644.58 1345.35 1631.42 1345.35 1620.73 1361.28 1620.73 1380.94Z" fill="#A6B3C6" transform="translate(-542.01 -111.32)"/><path d="M1628.76 1380.94C1628.76 1390.31 1633.85 1397.94 1640.12 1397.94 1646.39 1397.94 1651.49 1390.35 1651.49 1380.94 1651.49 1371.53 1646.4 1363.94 1640.12 1363.94 1633.84 1363.94 1628.76 1371.57 1628.76 1380.94Z" fill="#F0F2F8" transform="translate(-542.01 -111.32)"/><path d="M1664.73 981.08C1675.22 987.69 1674.28 1012.85 1681.37 1027.45 1681.37 1027.45 1693.48 1036.63 1688.56 1043.59 1685.85 1047.43 1681.44 1050.31 1676.35 1049.35 1673.1 1048.74 1667.79 1043.43 1664.63 1039.55 1651.06 1037.47 1637.69 1034.3 1624.63 1030.07 1607.84 1024.39 1599.77 995.86 1605.77 980.85 1610.74 968.48 1648.7 971 1664.73 981.08Z" fill="#E6E7E8" transform="translate(-542.01 -111.32)"/><g clip-path="url(#aa9f13f4-ae3a-4659-98ef-a726bc3bc98e)"><path d="M1666.54 976.41C1672.35 1004.7 1684.73 1033.27 1645.84 1021.03 1624.91 1014.44 1617.11 1008.03 1606.18 987.9 1597.47 971.84 1594.65 949.01 1594.65 949.01L1590.85 1031.59 1679.32 1053.68 1688.56 1047.19 1680.76 1033.03 1681.27 1021.03Z" fill="#231F20" opacity="0.15" transform="translate(-542.01 -111.32)"/></g><path d="M2886.89 1311.82 2742.37 1381.3 2411.15 1444.17 2176.26 1436.29 1797 1417.36 1907.46 1132.46 2871.81 1157.46C2875.15 1180.2 2879.69 1202.74 2885.41 1225 2894.9 1261.68 2886.89 1311.82 2886.89 1311.82Z" fill="#151717" transform="translate(-542.01 -111.32)"/><ellipse cx="1702.07" cy="1288.6" rx="121.03" ry="174.95" fill="#162C30"/><path d="M1702.07 1113.65 1784.59 1113.65 1775.17 1469.08 1702.07 1463.54 1702.07 1113.65Z" fill="#162C30"/><path d="M2711.75 1331.11C2711.75 1404.19 2735.35 1463.43 2764.46 1463.43 2793.57 1463.43 2817.16 1404.19 2817.16 1331.11 2817.16 1258.03 2793.56 1198.79 2764.46 1198.79 2735.36 1198.79 2711.75 1258 2711.75 1331.11Z" fill="#162C30" transform="translate(-542.01 -111.32)"/><path d="M2222.44 1087.47 2288.66 1087.47 2289.91 1355.38 2222.44 1352.11 2222.44 1087.47Z" fill="#162C30"/><path d="M2777.18 1332.74C2777.18 1406.74 2801.69 1466.74 2831.92 1466.74 2862.15 1466.74 2886.68 1406.74 2886.68 1332.74 2886.68 1258.74 2862.16 1198.74 2831.92 1198.74 2801.68 1198.74 2777.18 1258.76 2777.18 1332.74Z" fill="#162C30" transform="translate(-542.01 -111.32)"/><path d="M2795.1 1332.74C2795.1 1389.38 2813.17 1435.3 2835.45 1435.3 2857.73 1435.3 2875.81 1389.38 2875.81 1332.74 2875.81 1276.1 2857.74 1230.18 2835.45 1230.18 2813.16 1230.18 2795.1 1276.1 2795.1 1332.74Z" fill="#F0F2F8" transform="translate(-542.01 -111.32)"/><path d="M2800.8 1332.74C2800.8 1383.74 2816.71 1425.07 2836.32 1425.07 2855.93 1425.07 2871.84 1383.74 2871.84 1332.74 2871.84 1281.74 2855.94 1240.41 2836.32 1240.41 2816.7 1240.41 2800.8 1281.75 2800.8 1332.74Z" fill="#162C30" transform="translate(-542.01 -111.32)"/><path d="M2299.21 1122.09 2292.05 1205.64 2328.54 1175.38 2331.34 1193.08 2293.44 1224.88 2324.04 1281.67 2319.34 1297.18 2287.54 1238.78 2275.15 1310.41 2268.43 1297.51 2280.15 1224.68 2254.54 1204.04 2256.65 1183.14 2281.62 1204.26 2288.66 1121.02 2299.21 1122.09Z" fill="#F0F2F8"/><path d="M2817.87 1332.74C2817.87 1349.13 2823.1 1362.42 2829.55 1362.42 2836 1362.42 2841.22 1349.13 2841.22 1332.74 2841.22 1316.35 2835.99 1303.06 2829.55 1303.06 2823.11 1303.06 2817.87 1316.35 2817.87 1332.74Z" fill="#A6B3C6" transform="translate(-542.01 -111.32)"/><path d="M2819.55 1332.74C2819.55 1340.56 2822.04 1346.89 2825.11 1346.89 2828.18 1346.89 2830.68 1340.56 2830.68 1332.74 2830.68 1324.92 2828.19 1318.59 2825.11 1318.59 2822.03 1318.59 2819.55 1324.93 2819.55 1332.74Z" fill="#F0F2F8" transform="translate(-542.01 -111.32)"/><path d="M2886.89 1311.82 2887.2 1280.94C2887.2 1280.94 2884.29 1165.84 2837.37 1168.31 2798.83 1170.31 2782.6 1218.01 2770.68 1270.74 2760.68 1315.1 2753.98 1381.88 2729.61 1385.6 2677.18 1393.6 2613.87 1404.52 2559.48 1412.73 2505.73 1420.84 2418.48 1444.17 2418.48 1444.17 2426.48 1352.57 2410.36 1167.3 2331.25 1171.35 2258.12 1175.1 2232.12 1311.82 2218.68 1466.7 2202.38 1475.9 2055.49 1483.7 1988.46 1483.7 1916.96 1483.7 1576.52 1472.61 1534.1 1467.48 1491.68 1462.35 1461.38 1460.07 1440.1 1413.73 1405.1 1337.66 1408.1 1267.49 1414.46 1240.3 1426.13 1190.6 1438.8 1101.86 1621.36 1033.4 1627.49 1031.1 1659.25 1032.9 1665.98 1031.4 1802.9 906.66 1952.98 809.8 2076.23 793.07 2196.3 776.76 2390.88 768.65 2535.15 762.64 2632.51 758.64 2728.64 811.32 2810.79 908.64 2839.69 931.46 2860.7 946.64 2860.7 946.64 2860.7 946.64 2898.48 1107.14 2905.33 1119.31 2914 1134.84 2904.3 1294.07 2886.89 1311.82Z" fill="#E6E7E8" transform="translate(-542.01 -111.32)"/><g clip-path="url(#b0c92b1d-e059-45a5-8621-33dc87fc3e9d)"><path d="M1589.91 1022.27C1415.47 1072.98 1521.79 1123.07 1640.62 1127.74 1870.12 1136.74 2256.23 1014.15 2256.23 1014.15Z" fill="#FFFFFF" opacity="0.2" transform="translate(-542.01 -111.32)"/><path d="M2209.58 1500C2209.58 1500 2206.58 1347.87 2234.94 1255.58 2255.94 1187.14 2287.37 1142.81 2338.38 1141.99 2401.26 1140.99 2452.99 1299.19 2417.49 1447.26 2405.94 1495.38 2209.58 1500 2209.58 1500Z" fill="#231F20" opacity="0.1" transform="translate(-542.01 -111.32)"/><path d="M2741.57 1403.3C2741.57 1403.3 2751.17 1279.1 2768.5 1226.06 2783.7 1179.55 2808.94 1148.06 2842.18 1147.52 2883.18 1146.79 2907.18 1263.01 2884.02 1369.12 2876.5 1403.64 2741.57 1403.3 2741.57 1403.3Z" fill="#231F20" opacity="0.1" transform="translate(-542.01 -111.32)"/><path d="M2316.36 1024.3 2782.09 929.21 2812.52 910.21 2862.72 945.21C2859.17 951.76 2834.14 970.21 2817.84 974.87 2714.4 1004.54 2477.68 1040.87 2391.84 1053.22L2391.84 1053.22 2372 1033 2342.93 1036.47 2364.24 1056.9C2281.78 1067.19 2184.32 1072 2316.36 1024.3Z" fill="#FFFFFF" opacity="0.2" transform="translate(-542.01 -111.32)"/></g><path d="M2603.19 1344.49C2535.89 1355.94 2442.1 1374.96 2462.19 1382.13 2482.28 1389.3 2564.05 1370.46 2617.34 1359.4 2744.49 1333 2803.7 1310.37 2603.19 1344.49Z" fill="#FFFFFF" opacity="0.2" transform="translate(-542.01 -111.32)"/><path d="M2201.47 1493.58C2211.36 1487.49 2216.81 1478.87 2218.71 1466.7 2218.71 1466.7 2060.46 1486.14 2046.55 1477.01 2002.12 1447.86 1940.29 1391.94 1834.33 1388.53 1780.61 1386.8 1495.59 1376.35 1462.12 1377.87 1428.65 1379.39 1462.82 1488.78 1494.86 1492.73 1575.17 1502.63 1858.95 1516.06 1929.95 1514.03 2000 1512 2201.47 1493.58 2201.47 1493.58Z" fill="#162C30" transform="translate(-542.01 -111.32)"/><path d="M2266.91 887.63 2226.59 898.95 2229.14 888.56 2269.46 877.24 2266.91 887.63Z" fill="#162C30" fill-rule="evenodd"/><path d="M2266.57 885.95 2226.24 897.28 2228.79 886.89 2269.11 875.56 2266.57 885.95Z" fill="#A6B3C6" fill-rule="evenodd"/><path d="M2095.27 930.51 2039.3 940.86 2043.1 929.21 2099.08 918.87 2095.27 930.51Z" fill="#162C30" fill-rule="evenodd"/><path d="M2095.02 928.58 2039.05 938.92 2042.85 927.28 2098.82 916.92 2095.02 928.58Z" fill="#A6B3C6" fill-rule="evenodd"/><path d="M1643.71 1164.7C1636.48 1171.7 1626.35 1173.09 1621.07 1167.7 1615.79 1162.31 1617.36 1152.23 1624.58 1145.18 1631.8 1138.13 1641.94 1136.79 1647.22 1142.18 1652.5 1147.57 1650.93 1157.66 1643.71 1164.7Z" fill="#D0D2D3" transform="translate(-542.01 -111.32)"/><path d="M2417.3 1141.64C2435.24 1219.02 2446.07 1359.24 2474.3 1355.47 2508.52 1350.91 2681.44 1318.66 2703.76 1312.58 2726.08 1306.5 2753.83 1191.11 2772.47 1143.97 2789.71 1100.36 2849.55 1005.03 2888.09 1233.22 2892.83 1261.29 2894.53 1175.59 2892.14 1144.98 2887.07 1080.08 2869.53 1050.63 2696.91 1066.55 2634.26 1072.33 2406.86 1096.61 2417.3 1141.64Z" fill="#231F20" opacity="0.1" transform="translate(-542.01 -111.32)"/><path d="M2207.79 1205.21C2222 1174.35 2178.38 1174.59 2077.74 1244.88 2016 1288 1944.12 1334.75 1980 1363.94 2008.9 1387.45 2066.71 1420.27 2107.86 1418.31 2149.01 1416.35 2155.08 1394.83 2159.29 1375.69 2164.68 1351.2 2193.59 1236.08 2207.79 1205.21Z" fill="#231F20" opacity="0.1" transform="translate(-542.01 -111.32)"/><path d="M1522 1213.57C1573.59 1212.01 1675.14 1214.72 1736 1215.73 1813.63 1217.02 1874.19 1238.13 1928.7 1284.57 1956.08 1307.89 1846.58 1323.02 1730.43 1323.37 1654.92 1323.59 1564.6 1321.08 1512.88 1318.04 1461.16 1315 1402.37 1317.93 1414.5 1287.61 1424.6 1262.26 1455 1215.6 1522 1213.57Z" fill="#231F20" opacity="0.1" transform="translate(-542.01 -111.32)"/><path d="M1641.13 1033.42C1789.2 1035.96 2145.13 1026.32 2256.23 1014.15 2326.23 902.59 2403.29 779.37 2535.14 762.63 2342.44 765.63 2176.33 774.63 2074.69 785.45 1974.29 796.1 1782.61 902.59 1641.13 1033.42Z" fill="#162C30" transform="translate(-542.01 -111.32)"/><g clip-path="url(#a08edc1e-353b-434f-86a7-c7579381b1df)"><path d="M1650.25 1038C1934.74 834.13 2416 785.45 2535.64 761.11 2342.95 764.11 2238.81 769.58 2137.07 779.37 1984.15 794.07 1791.73 907.16 1650.25 1038Z" fill="#6C8894" transform="translate(-542.01 -111.32)"/></g><path d="M2754.71 1349.85C2754.71 1349.85 2670.09 1369.57 2591.93 1385.85 2518.93 1401.07 2480.37 1411.72 2419.77 1426.93 2417.24 1433.01 2411.41 1442.65 2411.41 1442.65L2410.41 1448.99C2410.41 1448.99 2567.83 1414.62 2616.55 1407.66 2708.84 1394.48 2734.82 1392.72 2742.02 1385.35 2749.22 1377.98 2754.71 1349.85 2754.71 1349.85Z" fill="#162C30" transform="translate(-542.01 -111.32)"/><path d="M2316.36 1024.3C2522.24 1006 2758.91 954 2789.7 945.19 2802.12 941.64 2802.7 934.54 2807.7 913.19 2731.67 822 2615.26 783.93 2558.46 790 2400.25 807 2316.36 1024.3 2316.36 1024.3Z" fill="#162C30" transform="translate(-542.01 -111.32)"/><g clip-path="url(#ab226b03-6a13-45bf-b6ba-141f6d5e8352)"><path d="M2320.13 1012.12C2320.13 1012.12 2431.8 874.23 2594.97 870.12 2722.74 866.91 2807.73 906.82 2807.73 906.82 2807.73 906.82 2800.86 756.53 2648.73 756.53 2496.6 756.53 2389.09 791.01 2362.73 839.69 2336.37 888.37 2320.13 1012.12 2320.13 1012.12Z" fill="#6C8894" transform="translate(-542.01 -111.32)"/></g><path d="M2570.94 789.39C2566.77 789.377 2562.61 789.587 2558.46 790.02 2400.25 807.02 2316.36 1024.3 2316.36 1024.3 2522.24 1006 2758.91 954 2789.7 945.19 2802.12 941.64 2802.7 934.54 2807.7 913.19 2736.88 828.21 2631 789.39 2570.94 789.39ZM2790.2 931.2C2789.74 932.02 2789.41 932.61 2786.36 933.49 2771.77 937.65 2704.93 952.89 2616.48 969.23 2544.15 982.59 2438.65 1000.14 2335.72 1010.23 2350.33 978.81 2367.83 948.817 2388 920.64 2411 888.84 2435.6 862.89 2461.27 843.48 2492.79 819.66 2525.95 805.75 2559.81 802.12 2563.52 801.736 2567.26 801.549 2570.99 801.56 2601.71 801.56 2641.48 812.08 2680.12 830.42 2711.37 845.26 2756.12 872.09 2794.53 916.42 2792.89 923.28 2791.61 928.66 2790.2 931.2Z" fill="#162C30" transform="translate(-542.01 -111.32)"/><path d="M2571.39 790 2618.09 981.28 2651.23 1011.06C2656.55 1126.68 2656.12 1244.31 2639.85 1321.69 2636.08 1339.61 2655.07 1352.87 2655.07 1352.87 2655.07 1352.87 2653.54 1396.99 2624.64 1405.36" stroke="#404041" stroke-width="1.52" stroke-linejoin="round" fill="none" transform="translate(-542.01 -111.32)"/><path d="M2764 870 2789.71 945.18 2817.85 974.84C2817.85 974.84 2821.95 1049.12 2818.99 1071.08 2816.03 1093.04 2824.8 1109.81 2826.22 1123.08 2829.56 1154.08 2827.22 1170.08 2827.22 1170.08" stroke="#404041" stroke-width="1.52" stroke-linejoin="round" fill="none" transform="translate(-542.01 -111.32)"/><path d="M2359.46 1020 2391.88 1053.16C2431.44 1160.41 2446.88 1325.16 2451.97 1354.88 2453.94 1366.33 2457.53 1377.44 2462.62 1387.88 2462.62 1387.88 2466.85 1430.71 2439.04 1443.41" stroke="#404041" stroke-width="1.52" stroke-linejoin="round" fill="none" transform="translate(-542.01 -111.32)"/><path d="M2156.84 1072.55C2156.84 1072.55 2254.77 1039.55 2316.36 1024.3" stroke="#404041" stroke-width="1.52" stroke-linejoin="round" fill="none" transform="translate(-542.01 -111.32)"/><path d="M2256.23 1014.15C2269.42 1026.32 2270.43 1036.47 2270.43 1036.47" stroke="#404041" stroke-width="1.52" stroke-linejoin="round" fill="none" transform="translate(-542.01 -111.32)"/><path d="M1880.37 1178.81C1880.37 1178.81 1694.49 1187.45 1628.57 1186.44 1562.65 1185.43 1472.51 1176.64 1472.51 1176.64" stroke="#404041" stroke-width="1.52" stroke-linejoin="round" fill="none" transform="translate(-542.01 -111.32)"/><path d="M2110.59 1134.8C2110.59 1134.8 2177.59 1132.46 2215.16 1150.56 2248.69 1166.74 2268.07 1182.86 2268.07 1182.86L2283.4 1198.79" stroke="#404041" stroke-width="1.52" stroke-linejoin="round" fill="none" transform="translate(-542.01 -111.32)"/><path d="M2399.33 967.76C2383.26 974.91 2364.76 1003.25 2353.9 1019.03 2353.9 1019.03 2335.37 1028.96 2342.9 1036.49 2347.83 1041.35 2354.73 1043.65 2361.59 1042.72 2366.59 1042.05 2374.7 1036.31 2379.54 1032.11 2400.12 1029.9 2420.55 1026.48 2440.73 1021.86 2466.45 1015.73 2478.03 987.05 2477.86 969.15 2477.74 956.34 2423.87 956.85 2399.33 967.76Z" fill="#E6E7E8" transform="translate(-542.01 -111.32)"/><g clip-path="url(#f8c952ef-6da3-4da9-b32b-6f0623c4a9c6)"><path d="M2392.24 970.91C2369.24 1002.96 2348.77 1025.32 2408.31 1012.09 2440.36 1004.97 2452.31 998.09 2469.04 976.28 2482.37 958.92 2486.69 934.28 2486.69 934.28L2492.51 1023.56 2357.05 1047.44 2342.9 1040.44 2354.84 1025.13 2354.06 1012.13Z" fill="#231F20" opacity="0.15" transform="translate(-542.01 -111.32)"/></g><path d="M1828.24 1182.28C1828.24 1182.28 1865.36 1146.06 1937.78 1127.28 2010.2 1108.5 2156.84 1072.52 2156.84 1072.52 2156.84 1072.52 2130.07 1148.18 2047.37 1163.22 1964.67 1178.26 1828.24 1182.28 1828.24 1182.28Z" fill="#162C30" transform="translate(-542.01 -111.32)"/><path d="M1494.45 1179.8C1494.45 1179.8 1444.75 1179.8 1447.79 1155.46 1450.83 1131.12 1493.44 1103.73 1493.44 1103.73 1493.44 1103.73 1487.6 1145.06 1494.45 1179.8Z" fill="#162C30" transform="translate(-542.01 -111.32)"/><g clip-path="url(#b305f92e-2e63-4fa3-a0fd-dfbfdd9c793a)"><ellipse cx="1777.8" cy="1291.9" rx="123.26" ry="177.11" fill="#162C30"/><ellipse cx="1785.74" cy="1291.9" rx="90.85" ry="135.6" fill="#F0F2F8"/><ellipse cx="1787.69" cy="1291.9" rx="79.97" ry="122.07" fill="#162C30"/><path d="M1798.73 1160.57 1789.47 1271.04 1864.77 1231.03 1871.07 1254.42 1792.6 1296.46 1854.62 1371.55 1844.06 1392.07 1779.31 1314.85 1744.55 1409.55 1729.43 1392.49 1762.67 1296.21 1698.15 1268.91 1702.93 1241.28 1765.99 1269.21 1774.99 1159.15 1798.73 1160.57Z" fill="#F0F2F8"/><path d="M2293.89 1403.22C2293.89 1424.89 2305.66 1442.45 2320.18 1442.45 2334.7 1442.45 2346.46 1424.89 2346.46 1403.22 2346.46 1381.55 2334.69 1363.98 2320.18 1363.98 2305.67 1363.98 2293.89 1381.55 2293.89 1403.22Z" fill="#A6B3C6" transform="translate(-542.01 -111.32)"/><path d="M2302.74 1403.22C2302.74 1413.54 2308.35 1421.92 2315.27 1421.92 2322.19 1421.92 2327.79 1413.54 2327.79 1403.22 2327.79 1392.9 2322.19 1384.51 2315.27 1384.51 2308.35 1384.51 2302.74 1392.89 2302.74 1403.22Z" fill="#F0F2F8" transform="translate(-542.01 -111.32)"/></g><path d="M1710 1130.33C1710 1130.33 1708 1097.83 1703.5 1083.83L1579 1084.83C1582.74 1099.28 1585.41 1113.99 1587 1128.83Z" fill="#E6E7E8" transform="translate(-542.01 -111.32)"/><path d="M1572.44 1184.13C1572.44 1184.13 1600.15 1186.46 1628.57 1186.44 1656.99 1186.42 1689.73 1186.44 1689.73 1186.44 1689.73 1186.44 1700.98 1145.83 1709.98 1130.33 1709.98 1130.33 1663.98 1131.41 1635.31 1131 1606.64 1130.59 1586.98 1128.83 1586.98 1128.83 1573.31 1155.5 1572.44 1184.13 1572.44 1184.13Z" fill="#162C30" transform="translate(-542.01 -111.32)"/><g clip-path="url(#b67ad4d6-e0bc-4a5d-933a-f5c48e2020bc)"><path d="M1587 1128.83 1597 1147.33 1713 1148.33C1713 1148.33 1713.5 1129.33 1710 1130.33 1706.5 1131.33 1587 1128.83 1587 1128.83Z" transform="translate(-542.01 -111.32)"/><path d="M1054.96 1036.02 1041.96 1078.02 1022.97 1071.02 1038.46 1013.01 1044.96 1017.51 1054.96 1036.02Z"/></g><ellipse cx="1624.54" cy="1161.05" rx="17.52" ry="13.1" transform="matrix(0.717762 -0.696289 0.696289 0.717762 -891.96 1347.37)"/><ellipse cx="1664.26" cy="1161.64" rx="19.92" ry="14.9" transform="matrix(0.717762 -0.696289 0.696289 0.717762 -881.16 1375.17)"/><path d="M1707 1132C1707 1132 1705 1099.5 1700.5 1085.5L1578.96 1086.67C1582.32 1101.06 1584.78 1115.64 1586.33 1130.33Z" fill="#162C30" transform="translate(-542.01 -111.32)"/></g><g id="afd44bdb-3757-40b4-8f38-6886a854d3fe"><path d="M1121.5 1615.07C1121.5 1615.07 1154.32 1618.58 1145.5 1620.18 1135.84 1621.95 892.39 1672.96 883.5 1674.95 874.61 1676.94 851.37 1678.95 828.17 1674.95 804.97 1670.95 607.43 1653.76 589.58 1651.95 571.73 1650.14 587.19 1643.67 631.81 1635.68 676.43 1627.69 921.58 1595 921.58 1595Z" fill="#0E2529" opacity="0.1" transform="translate(-542.01 -111.32)"/><path d="M1121.33 1614.33C1121.33 1614.33 1148.91 1616.97 1141.53 1618.17 1133.41 1619.5 928.83 1657.8 921.33 1659.3 913.83 1660.8 894.33 1662.3 874.83 1659.3 855.33 1656.3 689.33 1643.38 674.33 1641.98 659.33 1640.58 672.33 1635.77 709.82 1629.77 747.31 1623.77 953.32 1599.3 953.32 1599.3Z" fill="#0E2529" opacity="0.7" transform="translate(-542.01 -111.32)"/><path d="M411.31 399.78 579.31 431.31 579.31 1503.01 411.31 1530.66 218.53 1517.9 218.53 416.01 411.31 399.78Z" fill="#E6E7E8"/><path d="M218.53 416.01 411.31 399.78 411.31 1530.66 218.53 1517.9 218.53 416.01Z" fill="#231F20" opacity="0.2"/><path d="M535.3 1127.5 461.63 1131.75 461.63 1140.21 535.3 1135.95 535.3 1127.5Z" fill="#FFFFFF" opacity="0.5"/><path d="M535.3 990.06 461.63 990.06 461.63 1131.75 535.3 1127.5 535.3 990.06Z" fill="#4D4D4D"/><path d="M535.3 990.06 498.45 1058.78 535.3 1127.5 535.3 990.06Z" fill="#333333"/><path d="M498.45 1058.78 535.3 990.06 461.63 990.06 461.63 1058.78 498.45 1058.78Z" fill="#1A1A1A"/><path d="M565.29 669.64 428.39 657.52 428.32 902.73 565.04 904.94 565.29 669.64Z" fill="#4D4D4D"/><path d="M565.04 904.94 428.32 902.73 428.31 911.38 565.03 913.23 565.04 904.94Z" fill="#FFFFFF" opacity="0.5"/><path d="M512.36 722.59 428.37 716.61 428.39 657.52 565.29 669.64 512.36 722.59Z" fill="#0D1A21"/><path d="M565.29 669.64 512.36 722.59 565.04 904.94 565.29 669.64Z" fill="#333333"/><path d="M499.39 740.58 428.37 735.93 428.33 844.43 530.56 847.83 499.39 740.58Z" fill="#0D1A21"/><path d="M488.63 867.27 502.71 867.65 498.39 852.95 484.27 852.5 488.63 867.27Z" fill="#0D1A21"/><path d="M506.02 867.74 519.96 868.12 515.68 853.49 501.71 853.05 506.02 867.74Z" fill="#0D1A21"/><path d="M523.23 868.21 537.02 868.58 532.79 854.03 518.97 853.6 523.23 868.21Z" fill="#0D1A21"/><path d="M494.34 885.48 508.37 885.79 504.06 871.13 490 870.77 494.34 885.48Z" fill="#0D1A21"/><path d="M511.67 885.86 525.55 886.16 521.29 871.58 507.38 871.22 511.67 885.86Z" fill="#0D1A21"/><path d="M528.82 886.23 542.55 886.53 538.34 872.02 524.57 871.66 528.82 886.23Z" fill="#0D1A21"/><path d="M1029.22 931.2 1007.85 930.32C1004.77 929.985 1002.17 927.876 1001.21 924.93L987.61 879.74C986.75 876.86 988.35 874.64 991.18 874.8L1012.77 876.05C1015.85 876.438 1018.42 878.569 1019.38 881.52L1032.7 926.28C1033.55 929.11 1032 931.32 1029.22 931.2ZM992.22 878.42C991.35 878.36 990.86 879.05 991.12 879.94L1004.69 925.09C1004.98 925.983 1005.76 926.63 1006.69 926.75L1028.08 927.65C1028.66 927.713 1029.18 927.291 1029.25 926.709 1029.27 926.514 1029.23 926.317 1029.15 926.14L1015.8 881.32C1015.51 880.422 1014.73 879.767 1013.8 879.63Z" fill="#7FC284" transform="translate(-542.01 -111.32)"/><path d="M483.82 813.11 465.22 812.3 462.81 804.27 481.44 805.13 483.82 813.11Z" fill="#7FC284"/><path d="M480.48 801.93 461.84 801.06 459.43 793.01 478.09 793.92 480.48 801.93Z" fill="#7FC284"/><path d="M477.14 790.72 458.46 789.79 456.05 781.72 474.74 782.7 477.14 790.72Z" fill="#7FC284"/><path d="M473.79 779.49 455.07 778.49 452.65 770.41 471.39 771.45 473.79 779.49Z" fill="#7FC284"/><path d="M1009.45 875.78C1010.06 877.78 1008.93 879.35 1006.95 879.24L999.22 878.81C997.028 878.532 995.192 877.018 994.5 874.92L993.77 872.49C993.16 870.49 994.3 868.89 996.28 869.01L1004.03 869.48C1006.22 869.758 1008.05 871.273 1008.73 873.37Z" fill="#7FC284" transform="translate(-542.01 -111.32)"/><path d="M1007.74 970.43C1008.59 974.06 1006.6 977.58 1003.28 978.27 999.96 978.96 996.57 976.59 995.71 972.95 994.85 969.31 996.86 965.78 1000.19 965.09 1003.52 964.4 1006.88 966.8 1007.74 970.43Z" fill="#F69326" transform="translate(-542.01 -111.32)"/><path d="M991.71 970C992.57 973.65 990.57 977.18 987.22 977.89 983.87 978.6 980.44 976.19 979.57 972.52 978.7 968.85 980.72 965.32 984.08 964.63 987.44 963.94 990.85 966.31 991.71 970Z" fill="#7FC284" transform="translate(-542.01 -111.32)"/><path d="M428.39 657.52 565.29 669.64 536.94 807.66 428.35 802.7 428.39 657.52Z" opacity="0.2"/><path d="M315.49 548.36 358.72 547.71 295.46 674.73 312.29 577.27 267.65 578.45 331.6 458.21 315.49 548.36Z" fill="#FF3040"/><path d="M1564.93 1161.91C1359.86 1199.23 1376.83 1524.81 1526.84 1641.82 1614.09 1709.82 1435.84 1742.23 1271.84 1668.82 1024 1558 1174 1152 1027.83 1134.56" stroke="#404041" stroke-width="25" stroke-linecap="round" stroke-miterlimit="10" fill="none" transform="translate(-542.01 -111.32)"/><path d="M1564.93 1165.46C1359.86 1202.77 1376.83 1528.35 1526.84 1645.37 1614.09 1713.42 1435.84 1745.77 1271.84 1672.37 1024.02 1561.49 1174.02 1155.49 1027.84 1138.1" stroke="#231F20" stroke-width="9" stroke-linecap="round" stroke-miterlimit="10" fill="none" transform="translate(-542.01 -111.32)"/><path d="M1084.15 1018.11 1138.96 1027.51 1138.83 1063.84 1102.77 1073.68 1063.74 1059.34 1021.48 1070.78 1012.48 1037.42 1084.15 1018.11Z" fill="#4D4D4D"/><path d="M1079.2 1030.59 1014.68 1045.63 1012.48 1037.42 1084.15 1018.11 1138.96 1027.51 1079.2 1030.59Z" fill="#FFFFFF" opacity="0.3"/><path d="M1063.74 1059.34 1021.48 1070.78 1019.22 1062.55 1071.58 1048.42 1138.83 1063.84 1102.77 1073.68 1063.74 1059.34Z" fill="#0C2635"/></g></svg>