<svg width="800" height="800" viewBox="0 0 512.006 512.006" xmlns="http://www.w3.org/2000/svg" xmlns:xlink="http://www.w3.org/1999/xlink" id="Layer_1" xml:space="preserve" overflow="hidden"><circle cx="256.003" cy="256.003" r="256.003" fill="#E4E7ED"/><path d="M59.435 379.857C160.777 379.857 244.183 437.706 254.774 511.988 159.39 511.54 76.353 458.928 32.685 381.225 41.434 380.329 50.359 379.857 59.435 379.857Z" fill="#75BD80"/><path d="M353.827 317.315C405.845 317.315 454.242 328.862 494.695 348.692 457.554 444.257 364.695 512 256.003 512 199.329 512 146.966 493.569 104.551 462.392 132.495 379.046 233.491 317.309 353.827 317.309L353.827 317.315Z" fill="#83CF8F"/><g><path d="M316.238 352.162 348.989 352.162 348.989 494.586C338.399 498.715 327.464 502.155 316.238 504.861L316.238 352.162Z" fill="#FEFEFE"/><path d="M106.809 351.356 118.029 351.356 118.029 400.153C116.77 401.963 110.587 402.351 106.809 401.243L106.809 351.356Z" fill="#FEFEFE"/></g><g><path d="M316.238 352.162 348.989 352.162 348.989 444.342 316.238 392.881Z" fill="#E4E7ED"/><path d="M345.071 352.162 348.982 352.162 348.982 494.586C347.686 495.095 346.378 495.585 345.071 496.076L345.071 352.162Z" fill="#E4E7ED"/></g><path d="M77.594 276.965 161.752 262.076 131.707 357.357 58.333 339.785Z" fill="#FEFEFE"/><g><path d="M78.738 279.92 74.548 294.694 144.58 287.894 151.004 268.161Z" fill="#8597B1"/><path d="M73.931 296.02 70.316 308.845 138.362 308.711 144.071 289.747Z" fill="#8597B1"/><path d="M69.953 310.177 65.981 323.649 131.295 331.569 137.647 310.915Z" fill="#8597B1"/><path d="M65.333 325.52 61.67 337.545 124.992 351.841 130.417 333.809Z" fill="#8597B1"/></g><g><path d="M80.924 286.938 82.608 285.448 84.321 279.012 84.824 278.927 83.05 285.466 84.085 286.399 82.317 288.215 78.884 301.076 79.931 302.251 78.151 303.843 74.724 316.692 75.808 318.096 73.979 319.477 70.51 332.501 71.473 334.118 69.759 335.311 68.869 338.641 68.457 338.526 69.371 335.099 68.457 333.785 70.05 332.55 73.586 319.283 72.69 317.994 74.27 316.716 77.745 303.674 76.843 302.432 78.442 301.082 81.911 288.058Z" fill="#ECF0F1"/><path d="M92.386 285.164 94.215 283.287 95.88 277.123 96.383 277.05 94.693 283.299 95.813 284.31 93.888 286.29 90.092 300.307 91.218 301.621 89.274 303.322 85.49 317.315 86.586 318.769 84.666 320.349 80.936 334.136 81.99 335.94 80.107 337.194 79.017 341.226 78.569 341.099 79.689 336.964 78.793 335.395 80.434 334.184 84.236 320.143 83.371 318.641 84.999 317.34 88.844 303.129 87.906 301.954 89.607 300.313 93.446 286.126Z" fill="#ECF0F1"/><path d="M103.903 283.226 105.871 281.192 107.409 275.258 107.941 275.167 106.391 281.21 107.53 282.397 105.544 284.443 101.426 300.107 102.662 301.209 100.657 303.02 96.782 317.818 98.084 319.441 95.928 321.1 91.956 336.213 93.083 337.896 91.091 339.519 89.825 344.345 89.341 344.205 90.636 339.271 89.534 337.424 91.424 336.267 95.456 320.87 94.318 319.404 96.249 317.848 100.179 302.814 99.113 301.433 100.9 300.113 105.065 284.261Z" fill="#ECF0F1"/><path d="M117.872 280.901 119.997 278.721 121.632 272.945 122.243 272.842 120.542 278.739 121.789 279.914 119.543 282.209 114.79 298.727 116.073 300.501 113.778 302.22 109.177 318.212 110.4 319.992 108.159 321.736 103.485 337.945 104.72 339.719 102.468 341.493 101.178 345.961 100.669 345.816 101.989 341.226 101.075 339.137 102.922 337.999 107.675 321.487 106.676 320.022 108.614 318.242 113.294 301.996 112.192 300.646 114.239 298.739 119.052 282.021Z" fill="#ECF0F1"/><path d="M133.239 278.406 135.485 276.402 137.26 270.396 137.883 270.311 136.073 276.426 137.399 277.692 135.068 279.859 129.77 297.722 131.09 299.72 128.655 301.5 123.466 319.023 124.762 320.858 122.34 322.825 117.296 339.882 118.544 341.929 116.164 343.709 114.608 348.971 114.057 348.813 115.655 343.418 114.614 341.293 116.685 339.943 121.825 322.565 120.766 320.858 122.867 319.059 128.129 301.264 127.22 299.72 129.176 297.728 134.541 279.654Z" fill="#ECF0F1"/><g><path d="M76.323 287.386 148.691 275.131 148.286 276.36 76.159 287.949Z" fill="#ECF0F1"/><path d="M71.933 302.402 141.468 298.491 141.056 299.72 71.769 302.959Z" fill="#ECF0F1"/><path d="M67.652 317.485 134.831 320.736 134.389 322.202 67.494 318.024Z" fill="#ECF0F1"/><path d="M63.165 332.562 127.656 342.946 127.251 344.175 62.996 333.125Z" fill="#ECF0F1"/></g></g><path d="M229.797 135.031 470.336 91.575 384.453 369.666 174.758 318.393Z" fill="#FEFEFE"/><path d="M469.549 91.363 481.604 101.802 395.261 388.358 180.898 328.444 174.758 318.393 384.453 369.666Z" fill="#C6CBD6"/><path d="M113.276 47.846C118.931 48.663 124.381 50.141 129.534 52.193 138.447 47.9 146.215 41.766 152.543 33.296 148.365 43.008 146.936 52.811 147.681 62.687 152.089 66.175 156.073 70.165 159.561 74.567 169.437 75.306 179.24 73.883 188.952 69.705 180.481 76.026 174.347 83.795 170.055 92.708 172.108 97.861 173.585 103.31 174.409 108.966 182.583 114.543 191.787 118.206 202.28 119.441 191.781 120.682 182.577 124.346 174.403 129.922 173.58 135.577 172.102 141.021 170.056 146.173 174.349 155.086 180.483 162.86 188.96 169.188 179.242 165.01 169.439 163.581 159.563 164.326 156.075 168.734 152.091 172.718 147.689 176.206 146.95 186.076 148.373 195.885 152.551 205.603 146.23 197.132 138.455 190.998 129.548 186.706 124.389 188.759 118.94 190.236 113.284 191.06 107.707 199.24 104.05 208.438 102.809 218.931 101.574 208.432 97.904 199.234 92.334 191.054 86.679 190.231 81.235 188.753 76.083 186.7 67.17 190.993 59.396 197.127 53.074 205.604 57.252 195.886 58.681 186.083 57.936 176.207 53.534 172.719 49.544 168.729 46.062 164.327 36.186 163.588 26.383 165.011 16.665 169.189 25.136 162.868 31.263 155.093 35.562 146.186 33.509 141.027 32.032 135.584 31.215 129.922 23.035 124.351 13.837 120.688 3.338 119.447 13.837 118.212 23.041 114.542 31.215 108.966 32.038 103.311 33.516 97.867 35.562 92.715 31.268 83.8 25.134 76.026 16.663 69.698 26.381 73.876 36.184 75.305 46.06 74.56 49.548 70.158 53.532 66.174 57.934 62.686 58.679 52.81 57.256 43.007 53.072 33.289 59.393 41.76 67.168 47.894 76.075 52.186 81.228 50.133 86.677 48.656 92.333 47.839 97.91 39.659 101.573 30.461 102.808 19.962 104.049 30.461 107.713 39.665 113.289 47.839L113.276 47.846Z" fill="#FCD34E"/><circle cx="102.795" cy="119.452" r="57.958" fill="#FFE356"/><g><path d="M235.598 143.654 223.058 186.783 432.759 166.935 451.989 109.34Z" fill="#8597B1"/><path d="M221.211 190.646 210.385 228.078 414.128 227.684 431.221 172.342Z" fill="#8597B1"/><path d="M209.283 231.959 197.397 271.292 392.972 294.403 411.997 234.12Z" fill="#8597B1"/><path d="M195.466 276.747 184.488 311.854 374.105 353.572 390.344 300.949Z" fill="#8597B1"/></g><g><path d="M242.137 164.143 247.187 159.808 252.322 141.001 253.823 140.765 248.507 159.844 251.607 162.563 246.315 167.867 236.046 205.414 239.164 208.847 233.836 213.491 223.579 250.977 226.83 255.077 221.351 259.115 210.948 297.134 213.849 301.839 208.714 305.327 206.05 315.051 204.808 314.706 207.545 304.709 204.802 300.87 209.58 297.261 220.17 258.552 217.488 254.78 222.222 251.056 232.637 212.989 229.93 209.356 234.702 205.426 245.104 167.425Z" fill="#ECF0F1"/><path d="M276.463 158.96 281.942 153.475 286.92 135.491 288.427 135.28 283.377 153.523 286.726 156.484 280.955 162.26 269.596 203.162 272.969 207 267.15 211.959 255.815 252.8 259.097 257.032 253.351 261.664 242.18 301.893 245.328 307.173 239.697 310.818 236.427 322.595 235.083 322.226 238.432 310.146 235.755 305.575 240.69 302.033 252.067 261.053 249.476 256.675 254.338 252.879 265.854 211.408 263.051 207.981 268.137 203.174 279.635 161.77Z" fill="#ECF0F1"/><path d="M310.958 153.299 316.849 147.365 321.439 130.042 323.037 129.788 318.411 147.42 321.796 150.889 315.868 156.865 303.54 202.58 307.234 205.801 301.227 211.075 289.638 254.277 293.513 259.006 287.065 263.844 275.191 307.967 278.558 312.871 272.594 317.618 268.809 331.702 267.338 331.302 271.213 316.885 267.925 311.503 273.574 308.124 285.666 263.184 282.245 258.903 288.04 254.362 299.811 210.482 296.601 206.449 301.96 202.598 314.433 156.339Z" fill="#ECF0F1"/><path d="M352.773 146.524 359.155 140.154 364.041 123.291 365.864 123 360.784 140.208 364.508 143.641 357.787 150.35 343.545 198.56 347.402 203.737 340.53 208.738 326.737 255.416 330.4 260.611 323.691 265.703 309.704 313.016 313.404 318.187 306.647 323.376 302.796 336.413 301.27 335.983 305.23 322.595 302.481 316.486 308.009 313.18 322.256 264.989 319.259 260.708 325.06 255.507 339.071 208.102 335.777 204.148 341.886 198.578 356.303 149.781Z" fill="#ECF0F1"/><path d="M398.803 139.246 405.518 133.396 410.84 115.867 412.699 115.601 407.28 133.457 411.252 137.157 404.276 143.484 388.406 195.617 392.36 201.442 385.058 206.643 369.539 257.783 373.408 263.154 366.167 268.888 351.054 318.666 354.796 324.648 347.663 329.843 343 345.192 341.366 344.732 346.143 328.995 343.013 322.795 349.225 318.841 364.623 268.119 361.438 263.154 367.729 257.886 383.49 205.947 380.765 201.448 386.62 195.635 402.684 142.879Z" fill="#ECF0F1"/><g><path d="M228.362 165.451 445.057 129.685 443.84 133.263 227.866 167.092Z" fill="#ECF0F1"/><path d="M215.229 209.271 423.422 197.87 422.205 201.448 214.733 210.912Z" fill="#ECF0F1"/><path d="M202.399 253.29 403.562 262.791 402.23 267.071 201.92 254.877Z" fill="#ECF0F1"/><path d="M188.957 297.298 382.079 327.615 380.856 331.193 188.46 298.939Z" fill="#ECF0F1"/></g></g><path d="M106.809 355.013 118.029 357.762 118.029 365.785Z" fill="#E4E7ED"/><path d="M161.752 262.076 165.04 264.916 134.65 362.449 60.004 342.522 58.333 339.785 131.707 357.357Z" fill="#C6CBD6"/></svg>